<svg viewBox="0 0 16 16" xmlns="http://www.w3.org/2000/svg" fill-rule="evenodd" clip-rule="evenodd" stroke-linejoin="round" stroke-miterlimit="1.414"><path d="M11.665 9.588c-.2-.1-1.177-.578-1.36-.644-.182-.067-.315-.1-.448.1-.132.197-.514.643-.63.775-.116.13-.232.147-.43.05-.2-.1-.842-.31-1.602-.985-.592-.525-.99-1.174-1.107-1.373-.116-.198-.013-.305.087-.404.09-.09.2-.232.3-.348.098-.116.13-.198.198-.33.066-.133.033-.248-.017-.348-.05-.1-.448-1.074-.614-1.47-.16-.387-.325-.334-.448-.34-.115-.006-.248-.007-.38-.007-.134 0-.35.05-.532.247-.182.2-.696.678-.696 1.653s.713 1.917.812 2.05c.1.132 1.404 2.133 3.4 2.99.476.205.846.327 1.136.418.476.15.91.13 1.253.08.383-.058 1.178-.48 1.344-.943.168-.463.168-.86.118-.943-.05-.083-.182-.133-.382-.232M8.034 14.52H8.03c-1.187 0-2.353-.318-3.37-.918l-.24-.143-2.507.653.67-2.43-.16-.25c-.662-1.05-1.012-2.263-1.01-3.508 0-3.633 2.97-6.59 6.623-6.59 1.77.002 3.43.688 4.68 1.934 1.252 1.244 1.94 2.9 1.94 4.66-.003 3.634-2.973 6.59-6.623 6.59m5.636-12.2C12.163.83 10.163.003 8.03 0 3.642 0 .07 3.556.067 7.928c0 1.397.366 2.76 1.063 3.964L0 16l4.223-1.102c1.164.63 2.474.964 3.807.965h.004c4.39 0 7.964-3.557 7.966-7.93 0-2.117-.827-4.11-2.33-5.608"/></svg>